<?xml version="1.0" encoding="UTF-8"?>
<svg id="Layer_2" data-name="Layer 2" xmlns="http://www.w3.org/2000/svg" viewBox="0 0 211.24 191.92">
  <defs>
    <style>
      .cls-1 {
        stroke: #000000;
        stroke-linejoin: round;
        stroke-width: 10px;
      }

      .cls-1, .cls-2 {
        fill: #000000;
      }
    </style>
  </defs>
  <g id="colored">
    <path class="cls-2" d="m107.01,179.49c.9.91,2.82,1.43,4.68,1.27,1.49-.13,2.48-.65,2.8-1.11.95-1.37-.2-6.22-5.91-14.7-2.8,7.29-3.49,12.62-1.57,14.54h0Z"/>
    <path class="cls-1" d="m191.56,25.44c-10.75-13.34-24.66-20.78-38.1-20.43-22.77.6-37.79,22.46-42.95,31.3-7.8-10.18-18.59-17.75-30.76-21.5-13.35-4.12-27.51-3.4-39.85,2.02C16.13,27.26.13,55.72,6.35,76.53c3.23,10.84,11.08,14.97,22.96,21.23,5.65,2.98,12.24,6.45,19.96,11.4,4.15,2.66,6.96,4.68,11.37,7.87,24.52,17.68,25.74,20.45,26.87,21.6s4.62,4.99,4.62,4.99c0,0-5.74-17.09-26.42-32.69-2.17-1.63-6.04-4.4-10.52-7.3-8.4-5.43-15.52-9.12-21.54-12.3-15.5-8.17-23.01-12.7-24.67-16.23-6.96-14.83,11.67-43.01,34.25-52.39,4-1.66,14.38-5.97,25.88-2.79,5.01,1.38,8.57,3.72,14.24,7.52,8.3,5.55,14.5,11.25,18.79,15.69-.51.21-3.89,1.66-5.01,5.27-1.17,3.76.68,8,3.96,9.76,2.97,1.6,6.51.82,8.77-.66,4.84-3.17,4.54-10.06,5.54-14.84,3.22-15.45,24.47-30.45,44.51-28.88,15.91,1.25,25.87,12.55,27.77,14.79,11.29,13.35,12.46,31.79,6.85,44.75-2.35,5.42-5.47,8.94-24.09,22.81-27.85,20.75-44.92,28.14-55.91,46.16-2.2,3.6-7.11,13.16-9.39,17.81-3.96,9.27-6.05,18.47-1.66,22.89h0c.23.42,1.98,3.45,5.28,3.86,2.58.32,4.51-1.16,5.72-2.1.38-.29,4.39-3.47,4.83-8.45.52-5.91-4.55-7.9-5.54-13.45-1.15-6.47,4.2-12.5,7.78-16.35,24.28-26.09,51.11-45.89,51.11-45.89,27.78-20.5,31.15-23.16,32.64-29.23,3.3-13.48-2.08-31.52-13.72-45.96Z"/>
  </g>
</svg>