<?xml version="1.0" encoding="UTF-8"?>
<svg id="Layer_2" data-name="Layer 2" xmlns="http://www.w3.org/2000/svg" viewBox="0 0 84.66 73.25">
  <defs>
    <style>
      .cls-1 {
        fill: none;
        stroke: currentcolor;
        stroke-linejoin: round;
        stroke-width: 4px;
      }
    </style>
  </defs>
  <g id="Phone">
    <path class="cls-1" d="M72.67,33.49v-4.96c0-4.35-2.84-8.16-6.88-9.28-15.64-4.34-31.29-4.34-46.93,0-4.04,1.12-6.87,4.92-6.87,9.28v4.96c-3.6,1.83-6.92,1.71-9.99,0V16.24c0-4.31,2.79-8.05,6.77-9.24,22.37-6.67,44.75-6.67,67.12,0,3.98,1.19,6.77,4.92,6.77,9.24v17.25c-3.37,1.75-6.71,1.79-9.99,0Z"/>
    <path class="cls-1" d="M40.16,24.42c-8.65,0-15.47,6.82-15.47,15.23h0c0,3.9-3.16,7.05-7.05,7.05h0c-4.09,0-7.4,3.31-7.4,7.4v17.14s32.1,0,32.1,0h0s32.1,0,32.1,0v-17.14c0-4.09-3.31-7.4-7.4-7.4h0c-3.9,0-7.05-3.16-7.05-7.05h0c0-8.41-6.82-15.23-15.23-15.23h-4.58Z"/>
    <circle class="cls-1" cx="42.32" cy="47.83" r="7.83"/>
  </g>
</svg>