<?xml version="1.0" encoding="UTF-8"?>
<svg id="Layer_2" data-name="Layer 2" xmlns="http://www.w3.org/2000/svg" viewBox="0 0 29.49 67.66">
  <defs>
    <style>
      .cls-1 {
        fill: currentcolor;
      }
    </style>
  </defs>
  <g id="question_mark" data-name="question mark">
    <path class="cls-1" d="M11.7,51.11c-2.03,0-3.53-1.37-3.68-3.16-1.12-13.08,13.78-20.36,13.92-31.56,.11-8.56-10.12-10.27-17.13-7.52-1.82,.71-3.87-.11-4.57-1.94v-.04c-.64-1.63,.05-3.48,1.6-4.28C13.36-3.34,29.54,.91,29.49,15.22c-.04,12.04-13.22,21.22-13.07,29.88,0,.04,.02,1.16,.07,2.43,.07,1.95-1.49,3.57-3.44,3.57h-1.35Zm-3.65,10.5c.52-6.58,10.16-6,9.8,.8,.18,7.7-10.71,6.51-9.8-.8Z"/>
  </g>
</svg>