<?xml version="1.0" encoding="UTF-8"?>
<svg id="Layer_2" data-name="Layer 2" xmlns="http://www.w3.org/2000/svg" viewBox="0 0 81.72 80.66">
  <defs>
    <style>
      .cls-1 {
        fill: none;
        stroke: #000;
        stroke-linecap: round;
        stroke-linejoin: round;
        stroke-width: 5px;
      }

      .cls-2 {
        fill: #000;
      }
    </style>
  </defs>
  <g id="history">
    <path class="cls-1" d="M41.39,2.5c20.89,0,37.83,16.94,37.83,37.83s-16.94,37.83-37.83,37.83S3.56,61.22,3.56,40.33c0-9.67,3.63-18.49,9.6-25.18"/>
    <polyline class="cls-1" points="16.23 26.18 13.07 15.21 2.5 18.26"/>
    <path class="cls-2" d="M54.04,49.16c.23,6.95-6.04,11.17-12.51,11.48l-.62,6.27c-.19,1.08-1.53,.89-2.49,.97-1.17-.07-3.02,.13-2.87-1.35,0,0,.62-5.95,.62-5.95-2.56-.6-6.38-.79-7.44-3.44-.16-1.45-.83-6.7,2.11-4.76,4.34,3.48,18.39,3.89,14.52-4.6-3.53-3.75-9.94-3.54-13.52-7.44-6.26-6.54-.86-17.55,8.14-17.52,.48-1-.32-7.14,1.85-6.77,6.19-.98,3.62,3.06,3.57,6.83,4.94,.58,7.59,2.21,6.27,7.51-1.37,1.41-3.95-1.5-5.99-1.51-3.99-1.51-11.23,.77-8.01,5.92,5.35,4.87,16.94,4.5,16.38,14.35Z"/>
  </g>
</svg>