<?xml version="1.0" encoding="UTF-8"?>
<svg id="Layer_2" data-name="Layer 2" xmlns="http://www.w3.org/2000/svg" viewBox="0 0 74.67 60.33">
  <defs>
    <style>
      .cls-1 {
        fill: none;
        stroke: #000;
        stroke-linecap: round;
        stroke-linejoin: round;
        stroke-width: 2px;
      }

      .cls-2 {
        fill: #000;
      }
    </style>
  </defs>
  <g id="Layer_14" data-name="Layer 14">
    <path class="cls-2" d="M73.12,0h-5.01c-.44,0-.84,.29-.96,.72l-10.29,35.38c-.66,2.26-2.42,3.79-4.39,3.79H10.11c-2.48,0-4.58,2.26-4.58,4.94s2.1,4.94,4.58,4.94H58.78c.55,0,1-.45,1-1v-2.89c0-.55-.45-1-1-1s-1,.45-1,1v1.89H10.11c-1.22,0-2.58-1.26-2.58-2.94s1.36-2.94,2.58-2.94H52.47c2.87,0,5.4-2.1,6.31-5.23L68.87,3.1h4.26c.86,0,1.56-.71,1.55-1.57h0c-.01-.85-.7-1.53-1.55-1.53Z"/>
    <line class="cls-1" x1="10.11" y1="40.89" x2="1" y2="3.62"/>
    <circle class="cls-1" cx="16.55" cy="55.39" r="3.94"/>
    <circle class="cls-1" cx="51.32" cy="55.39" r="3.94"/>
    <line class="cls-1" x1="2.78" y1="10.91" x2="64.19" y2="10.91"/>
    <line class="cls-1" x1="59.9" y1="25.69" x2="6.39" y2="25.69"/>
    <line class="cls-1" x1="21.65" y1="10.91" x2="21.65" y2="39.89"/>
    <line class="cls-1" x1="43.65" y1="10.91" x2="43.65" y2="39.89"/>
  </g>
</svg>