<?xml version="1.0" encoding="UTF-8"?>
<svg id="Layer_2" data-name="Layer 2" xmlns="http://www.w3.org/2000/svg" viewBox="0 0 42.97 41.15">
  <defs>
    <style>
      .cls-1 {
        fill: none;
        stroke: #000;
        stroke-miterlimit: 10;
        stroke-width: 2px;
      }
    </style>
  </defs>
  <g id="stars">
    <path class="cls-1" d="M23.15,2.03l4.9,9.92c.27,.55,.79,.93,1.39,1.01l10.95,1.59c1.52,.22,2.13,2.09,1.03,3.16l-7.92,7.72c-.44,.43-.64,1.04-.53,1.64l1.87,10.9c.26,1.51-1.33,2.67-2.69,1.95l-9.79-5.15c-.54-.28-1.18-.28-1.72,0l-9.79,5.15c-1.36,.71-2.95-.44-2.69-1.95l1.87-10.9c.1-.6-.1-1.21-.53-1.64L1.56,17.72c-1.1-1.07-.49-2.94,1.03-3.16l10.95-1.59c.6-.09,1.12-.47,1.39-1.01L19.83,2.03c.68-1.38,2.64-1.38,3.32,0Z"/>
  </g>
</svg>