<?xml version="1.0" encoding="UTF-8"?>
<svg id="Layer_2" data-name="Layer 2" xmlns="http://www.w3.org/2000/svg" viewBox="0 0 97.49 51.08">
  <defs>
    <style>
      .cls-1 {
        stroke-width: 4px;
      }

      .cls-1, .cls-2, .cls-3 {
        fill: none;
        stroke: #000000;
      }

      .cls-1, .cls-3 {
        stroke-linejoin: round;
      }

      .cls-2 {
        stroke-miterlimit: 10;
        stroke-width: 2px;
      }

      .cls-3 {
        stroke-width: 3px;
      }

      .cls-4 {
        fill: #000000;
      }
    </style>
  </defs>
  <g id="LOGO">
    <path class="cls-2" d="m68.22,41.99c-1.47,0-2.66,1.19-2.66,2.66s1.19,2.66,2.66,2.66,2.66-1.19,2.66-2.66-1.19-2.66-2.66-2.66Z"/>
    <circle class="cls-2" cx="68.22" cy="44.65" r="5.33"/>
    <path class="cls-2" d="m27.35,42.09c-1.47,0-2.66,1.19-2.66,2.66s1.19,2.66,2.66,2.66,2.66-1.19,2.66-2.66-1.19-2.66-2.66-2.66Z"/>
    <circle class="cls-2" cx="27.35" cy="44.75" r="5.33"/>
    <path class="cls-1" d="m80.18,46.08l-3.26.32v-3.28c0-4.87-4.34-7.76-8.64-7.76s-8.64,2.89-8.64,7.76v2.97h-23.43l.1-2.97c0-4.87-4.55-8.45-8.9-8.45s-8.92,3.58-8.92,8.45v2.52l-2.49.41c-3.09.51-5.4.71-7.14.71-4.52,0-5.23-1.35-5.7-2.26-.65-1.25-1.04-5.51-1.13-12.67-.16-11.69.85-12.55,1.83-13.39,1.09-.94,1.7-1.46,23.59-1.15,6.67.09,13.33.25,17.21.34-1.23-12.04.59-13.36,1.61-14.09.57-.41,2.1-1.51,11.5-1.54,9.57-.05,10.93,1.11,11.59,1.65,1.35,1.11,1.96,3.15,3.12,7.31.64,2.3,1.81,6.52,2.68,7.55,1.1.42,4.71.56,6.9.65,4.84.19,7.44.35,9.03,1.61,3.04,2.4,4.18,13.28,4.23,13.75.52,5.07-.18,6.67-1,7.65-1.54,1.83-6.29,3.14-14.13,3.91Z"/>
    <path class="cls-3" d="m51.74,18.52l-.37-6.51c-.12-2.1,1.55-3.88,3.66-3.88h8.64c1.01,0,1.89.68,2.15,1.66l2.28,8.82-16.35-.1Z"/>
    <path class="cls-4" d="m67.12,23.77v.54s-1.04-.04-1.73-.04c-.35,0-.6,0-.6.04,0,.46-.32.68-.63.68s-.63-.23-.63-.68v-.54s3.59,0,3.59,0m0-1h-3.59c-.27,0-.52.11-.71.29s-.29.44-.29.71v.54c0,.96.7,1.68,1.63,1.68.58,0,1.07-.28,1.36-.72.67,0,1.57.04,1.57.04.01,0,.02,0,.04,0,.26,0,.51-.1.69-.28.2-.19.31-.45.31-.72v-.54c0-.55-.45-1-1-1h0Z"/>
  </g>
</svg>